<?xml version="1.0" standalone="no"?>
<!DOCTYPE svg PUBLIC "-//W3C//DTD SVG 20010904//EN"
 "http://www.w3.org/TR/2001/REC-SVG-20010904/DTD/svg10.dtd">
<svg version="1.0" xmlns="http://www.w3.org/2000/svg"
 width="512.000000pt" height="512.000000pt" viewBox="0 0 512.000000 512.000000"
 preserveAspectRatio="xMidYMid meet">
<metadata>
Created by potrace 1.16, written by Peter Selinger 2001-2019
</metadata>
<g transform="translate(0.000000,512.000000) scale(0.100000,-0.100000)"
fill="#000000" stroke="none">
<path d="M3695 4387 c-59 -20 -6 11 -1340 -787 -868 -519 -1254 -755 -1287
-787 -26 -26 -59 -72 -75 -107 -24 -52 -28 -74 -28 -146 0 -72 4 -94 28 -146
16 -35 49 -81 75 -107 33 -31 430 -274 1296 -792 686 -411 1269 -757 1295
-768 35 -17 66 -22 131 -22 76 0 92 3 152 33 104 51 181 149 208 264 13 59 13
3017 0 3076 -39 168 -180 291 -343 298 -42 2 -88 -2 -112 -9z"/>
</g>
</svg>
